PathFileType	4	(X/Y/Z)	/Users/niels/Desktop/University/Third Semester/Perception and Action/Exam/Gymnastics Motion Tracking/Code for Gym Tracking/Analyzed Data/Webcam_Backflip/id1_4_trajectory_Sports2D/id1_4_trajectory_Sports2D_px_person00.trc
DataRate	CameraRate	NumFrames	NumMarkers	Units	OrigDataRate	OrigDataStartFrame	OrigNumFrames
29.874476987447697	29.874476987447697	9	22	m	29.874476987447697	149	239
Frame#	Time	Hip			RHip			RKnee			RAnkle			RBigToe			RSmallToe			RHeel			LHip			LKnee			LAnkle			LBigToe			LSmallToe			LHeel			Neck			Head			Nose			RShoulder			RElbow			RWrist			LShoulder			LElbow			LWrist		
		X1	Y1	Z1	X2	Y2	Z2	X3	Y3	Z3	X4	Y4	Z4	X5	Y5	Z5	X6	Y6	Z6	X7	Y7	Z7	X8	Y8	Z8	X9	Y9	Z9	X10	Y10	Z10	X11	Y11	Z11	X12	Y12	Z12	X13	Y13	Z13	X14	Y14	Z14	X15	Y15	Z15	X16	Y16	Z16	X17	Y17	Z17	X18	Y18	Z18	X19	Y19	Z19	X20	Y20	Z20	X21	Y21	Z21	X22	Y22	Z22
149	4.987535014005602	0.8285739317960539	-0.6017840757961109	0.0	0.8223155798385501	-0.6003829834064632	0.0	0.8162506488534721	-0.7042946725141882	0.0	0.8053564687671064	-0.8204895377510494	0.0	0.8533732910021562	-0.8382768831659131	0.0	0.8424579270530317	-0.8421376335173479	0.0	0.7942615193878232	-0.8380348493043427	0.0	0.8382743458176772	-0.600627833803144	0.0	0.8399198048178897	-0.7008669840983146	0.0	0.8311448274655007	-0.8113054331578671	0.0	0.8749113893972822	-0.8299383082853246	0.0	0.8704692023404663	-0.8258941648307134	0.0	0.8222862039432616	-0.8266766571630085	0.0	0.8587736981528513	-0.43661768177088117	0.0	0.9012206250462438	-0.37352928068726443	0.0	0.9039790248154028	-0.42172793224940064	0.0	0.8358331522208878	-0.4569752586145027	0.0	0.8003658651972654	-0.5299224552175105	0.0	0.8010714116011944	-0.612900966396123	0.0	0.8553721596025616	-0.4557920860651124	0.0	0.822095596107643	-0.5275603986263574	0.0	0.8213839678521948	-0.6044962669995911	0.0
150	5.0210084033613445	0.8302082245614639	-0.595046262954184	0.0	0.8237685139295393	-0.5940198362303151	0.0	0.817382991560667	-0.6977197016761975	0.0	0.8063267472404618	-0.8142128771587052	0.0	0.8529153748433362	-0.8343263316208168	0.0	0.8414607575790124	-0.8382369755412747	0.0	0.7949681499397252	-0.8318751095583484	0.0	0.8398741211199989	-0.5941083648295175	0.0	0.8402428174364361	-0.6946134129431626	0.0	0.8316336199638467	-0.8048975135214603	0.0	0.8746310838453005	-0.8253560632764394	0.0	0.870288543324247	-0.8210369467526577	0.0	0.8229996943083896	-0.8204838913334548	0.0	0.8602145178569095	-0.42967397195269863	0.0	0.9040552375234946	-0.3672329446575525	0.0	0.9056391342227122	-0.41546231100496067	0.0	0.836956955048031	-0.4493013672893217	0.0	0.7994384314491398	-0.5212203564095735	0.0	0.8000698549963978	-0.6042272616223544	0.0	0.8569619732307409	-0.44860761288597284	0.0	0.8219569541043639	-0.519305778155718	0.0	0.8207966974921355	-0.5958012125062154	0.0
151	5.054481792717087	0.8315447284529266	-0.5887630673489839	0.0	0.8248354548161405	-0.5880067083921565	0.0	0.818419631206457	-0.6918544490582071	0.0	0.8073427642767337	-0.808531665308079	0.0	0.852749403192457	-0.8306503621358298	0.0	0.8405890342015037	-0.8344714555254212	0.0	0.7957323560342836	-0.8261656664338414	0.0	0.8413860196705149	-0.5880917731117259	0.0	0.8404398792424255	-0.6893702595027092	0.0	0.8321076494673462	-0.7992054051271441	0.0	0.8747334685801489	-0.8214872288631571	0.0	0.8704393245395124	-0.8169226173132436	0.0	0.8237300499133762	-0.8149497313569609	0.0	0.8614408216435512	-0.42333936463504823	0.0	0.9068031446022486	-0.36172190080563793	0.0	0.9070408089130967	-0.4100137918006904	0.0	0.8378364478434422	-0.44206940396617006	0.0	0.7988026129173336	-0.5133734541530081	0.0	0.8010851747541191	-0.5960342631133203	0.0	0.8583650128533131	-0.44201490617922573	0.0	0.8224394611700895	-0.5118678186871127	0.0	0.8219796952050713	-0.5877563107976264	0.0
152	5.087955182072829	0.8325917460163565	-0.5835395353323942	0.0	0.8255834385142927	-0.5828736822593374	0.0	0.8193182452597767	-0.6872396193122983	0.0	0.8082468739560383	-0.803908302214792	0.0	0.8529536611780525	-0.8275277949218606	0.0	0.8400707857426433	-0.8311995653420111	0.0	0.7964410556177497	-0.8215054349731882	0.0	0.8428009770300884	-0.5831060971146333	0.0	0.8405309567163155	-0.6855802096621354	0.0	0.8325086295610704	-0.7947393322875218	0.0	0.8750861987289906	-0.8186069982308205	0.0	0.8707754318539837	-0.8138674464789601	0.0	0.8243571636776841	-0.8106060312169179	0.0	0.8624792350785688	-0.41814066086900753	0.0	0.9093771533507429	-0.3574965448696064	0.0	0.9082003911482609	-0.40583650628886525	0.0	0.838500436652859	-0.43590935926887386	0.0	0.7985474238448955	-0.5069864506734268	0.0	0.8039181001394364	-0.5888019216404443	0.0	0.8595674830670609	-0.4365839417544337	0.0	0.823443647681455	-0.5057867679991884	0.0	0.8246953487824151	-0.5809032517617545	0.0
153	5.121428571428571	0.8334095734474505	-0.5798623963384583	0.0	0.8261130731621946	-0.5791025528732209	0.0	0.8200612192172757	-0.6842262587550294	0.0	0.8089389569628335	-0.8007091859687274	0.0	0.853432523820921	-0.8252816178863642	0.0	0.8399755938956085	-0.8288035577742947	0.0	0.7970302743143011	-0.8182914363664288	0.0	0.844116191991778	-0.5796027865093185	0.0	0.840550716410251	-0.6834406588643792	0.0	0.8328440424438773	-0.791863165868498	0.0	0.8755256765089047	-0.8169453860410218	0.0	0.8711416569832237	-0.8121076474815879	0.0	0.8248648333361155	-0.8078168247312945	0.0	0.8633663774222909	-0.41447958890533454	0.0	0.9117041383575304	-0.3549235249470766	0.0	0.9091514837505114	-0.40325625101221213	0.0	0.8390380948777061	-0.4313490786910635	0.0	0.7986803232018981	-0.5025085705853519	0.0	0.8082887825329744	-0.5828881550760469	0.0	0.8605403373789681	-0.4327183828652124	0.0	0.8247760116718493	-0.5014973985944534	0.0	0.8285782767719228	-0.5756326039523508	0.0
154	5.154901960784313	0.8341041909515099	-0.5780287042050654	0.0	0.8265458488843631	-0.5770394680910889	0.0	0.8206771629804099	-0.6829557507664593	0.0	0.8094130935476223	-0.7991776741104099	0.0	0.8540812880132523	-0.8242117127901584	0.0	0.8403152839212654	-0.827618234346555	0.0	0.7974956325954314	-0.8167291562496232	0.0	0.8453398283284275	-0.5778593821849946	0.0	0.8405840070028152	-0.6829364216801239	0.0	0.8331670120042616	-0.7907892657319325	0.0	0.8759437155417804	-0.8167011446000698	0.0	0.8714608784625055	-0.8118285832114714	0.0	0.825319140807314	-0.8067710886952462	0.0	0.8641315143611858	-0.4126315304106275	0.0	0.9137427678625076	-0.35418744115942036	0.0	0.9099245226615805	-0.40246278447408834	0.0	0.8395275885880042	-0.42875354522712	0.0	0.799157047338746	-0.5001950692706568	0.0	0.8138924305950636	-0.578573392834988	0.0	0.8612770585028205	-0.4306759846909921	0.0	0.8262487445712028	-0.4993165764465749	0.0	0.833319570203048	-0.5722084608686128	0.0
155	5.188375350140056	0.8347928639797354	-0.578137438563453	0.0	0.8270100535626503	-0.5768320816503602	0.0	0.8212216518866061	-0.683392610249415	0.0	0.8097330479085697	-0.7993875704323228	0.0	0.8549307168861999	-0.8244901664062703	0.0	0.8411685591064788	-0.8278108803023393	0.0	0.7978681957358851	-0.8168648272151632	0.0	0.8465010218295661	-0.5779288198946213	0.0	0.8407307530577467	-0.6839443806319343	0.0	0.8334988003383612	-0.7915540874496446	0.0	0.8763013958302087	-0.8179592733120755	0.0	0.8717431304957185	-0.8130989968864683	0.0	0.8257430978427477	-0.8074909010833453	0.0	0.8647943008748137	-0.41272850947542494	0.0	0.9154767640742278	-0.3552803455201606	0.0	0.910550011300697	-0.4034914088267159	0.0	0.8399894704600886	-0.42829233594467264	0.0	0.7999290830517102	-0.500096111597702	0.0	0.8203892095058567	-0.5760115096311084	0.0	0.8618182222954697	-0.4305824505513307	0.0	0.8277767860236268	-0.4993929960168269	0.0	0.838697493403648	-0.5706974600134607	0.0
156	5.221848739495798	0.8355636111454584	-0.5800597707832336	0.0	0.8276042138448126	-0.5783827501762059	0.0	0.8217534566356147	-0.6853734705707905	0.0	0.8099776046263794	-0.8012447860857358	0.0	0.8561262188546166	-0.8261172773211913	0.0	0.8426813778555479	-0.8293320443188753	0.0	0.798175171133402	-0.8186115887393567	0.0	0.8476321130869938	-0.5796243941063173	0.0	0.8410521832371366	-0.6863010134016412	0.0	0.8338090534324214	-0.7940203077190787	0.0	0.8766194557741286	-0.8206270083361742	0.0	0.8720483660139381	-0.8158136482832955	0.0	0.8260852905099106	-0.8098595870540997	0.0	0.8653659732098128	-0.41472404261264173	0.0	0.9168898376002068	-0.3580368996676445	0.0	0.9110661823691517	-0.4062339673160928	0.0	0.8404052331098856	-0.42991669224281903	0.0	0.8009761541549749	-0.502074668624262	0.0	0.8273830109201756	-0.5752354541680322	0.0	0.8622288007283055	-0.4324079232555084	0.0	0.8294687091596615	-0.5016928472725237	0.0	0.8445692799758395	-0.5709429821034537	0.0
157	5.255322128851541	0.836449626437945	-0.5834191234065683	0.0	0.828372113250872	-0.581355427402495	0.0	0.8223268819226162	-0.6886404510318983	0.0	0.8101937733449106	-0.8045141990551414	0.0	0.8577709988640307	-0.8289356202632729	0.0	0.8449257669102999	-0.8319749780691985	0.0	0.7984309594994833	-0.8217580507150593	0.0	0.8487413503774902	-0.5825516934628562	0.0	0.8415622362866262	-0.6897878015331331	0.0	0.8340771867550859	-0.7979175574640344	0.0	0.8769674827018181	-0.8244572027976288	0.0	0.8724467804977474	-0.819716757778299	0.0	0.8263219064403357	-0.8136381934226115	0.0	0.8658412935540895	-0.418380210830363	0.0	0.9179583060041803	-0.3621687920072621	0.0	0.911504402424761	-0.4104550027609045	0.0	0.8407398411953526	-0.4333487205410666	0.0	0.8022967340672407	-0.5058422055522687	0.0	0.8344392123051912	-0.5762098956519495	0.0	0.8625676219946862	-0.43595562316349606	0.0	0.8315987043213297	-0.5060222646198175	0.0	0.85084721048005	-0.5726229843838929	0.0
